<svg 
 xmlns="http://www.w3.org/2000/svg"
 xmlns:xlink="http://www.w3.org/1999/xlink"
 width="58px" height="44px">
<path fill-rule="evenodd"  fill="rgb(195, 195, 195)"
 d="M56.074,23.776 L6.456,23.776 L23.494,40.854 C24.133,41.495 24.133,42.534 23.494,43.175 C23.175,43.495 22.756,43.655 22.337,43.655 C21.918,43.655 21.499,43.495 21.180,43.175 L1.347,23.295 C0.708,22.655 0.708,21.617 1.347,20.976 L21.180,1.097 C21.819,0.456 22.855,0.456 23.494,1.097 C24.133,1.736 24.133,2.776 23.494,3.416 L6.456,20.495 L56.074,20.495 C56.978,20.495 57.711,21.230 57.711,22.136 C57.711,23.042 56.978,23.776 56.074,23.776 Z"/>
</svg>