<svg 
 xmlns="http://www.w3.org/2000/svg"
 xmlns:xlink="http://www.w3.org/1999/xlink"
 width="44px" height="48px">
<path fill-rule="evenodd"  fill="rgb(195, 195, 195)"
 d="M43.331,27.258 L23.452,47.090 C22.811,47.730 21.772,47.730 21.132,47.090 L1.253,27.258 C0.611,26.619 0.611,25.582 1.253,24.943 C1.893,24.303 2.932,24.303 3.573,24.943 L20.651,41.981 L20.651,2.364 C20.651,1.460 21.385,0.727 22.292,0.727 C23.198,0.727 23.933,1.460 23.933,2.364 L23.933,41.981 L41.012,24.943 C41.652,24.303 42.691,24.303 43.331,24.943 C43.651,25.262 43.812,25.682 43.812,26.100 C43.812,26.519 43.651,26.939 43.331,27.258 Z"/>
</svg>