<?xml version="1.0" encoding="utf-8"?>
<!-- Generator: Adobe Illustrator 27.9.6, SVG Export Plug-In . SVG Version: 9.03 Build 54986)  -->
<svg version="1.1" id="레이어_1" xmlns="http://www.w3.org/2000/svg" xmlns:xlink="http://www.w3.org/1999/xlink" x="0px"
	 y="0px" width="30px" height="30px" viewBox="0 0 30 30" style="enable-background:new 0 0 30 30;" xml:space="preserve">
<style type="text/css">
	.st0{fill:#313131;}
	.st1{fill:#AF2D2D;}
</style>
<g id="모양_1294">
	<g>
		<path class="st0" d="M22.9,6.1h-5.5c-0.5,0-0.9,0.4-0.9,0.9c0,0.5,0.4,0.9,0.9,0.9h5.5c0.5,0,0.9-0.4,0.9-0.9
			C23.7,6.5,23.3,6.1,22.9,6.1z M18.9,4.1h3.9c0.5,0,0.9-0.4,0.9-0.9c0-0.5-0.4-0.9-0.9-0.9h-3.9c-0.5,0-0.9,0.4-0.9,0.9
			C18,3.7,18.4,4.1,18.9,4.1z M15.8,9.8h-5.3c-0.5,0-0.9,0.4-0.9,0.9c0,0.5,0.4,0.9,0.9,0.9h5.3c0.5,0,0.9-0.4,0.9-0.9
			C16.7,10.2,16.3,9.8,15.8,9.8z M15.8,13.5h-5.3c-0.5,0-0.9,0.4-0.9,0.9c0,0.5,0.4,0.9,0.9,0.9h5.3c0.5,0,0.9-0.4,0.9-0.9
			C16.7,13.9,16.3,13.5,15.8,13.5z"/>
	</g>
</g>
<g id="모양_1294_복사_2">
	<g>
		<path class="st1" d="M22.4,12.4l1.1-1.1c0.3-0.3,0.4-0.8,0.1-1.1c-0.3-0.4-0.8-0.5-1.2-0.3c-0.1,0-0.1,0.1-0.1,0.1l-1.1,1.1L20,10
			c-0.3-0.3-0.9-0.3-1.2,0c0,0-0.1,0.1-0.1,0.1c-0.2,0.4-0.2,0.9,0.1,1.2l1.1,1.1l-1.1,1.1c-0.3,0.3-0.4,0.8-0.1,1.1
			c0.3,0.4,0.8,0.5,1.2,0.3c0.1,0,0.1-0.1,0.1-0.1l1.1-1.1l1.1,1.1c0.3,0.3,0.9,0.3,1.2,0c0,0,0.1-0.1,0.1-0.1
			c0.2-0.4,0.2-0.9-0.1-1.2L22.4,12.4z"/>
	</g>
</g>
<g id="모양_1294_복사">
	<g>
		<path class="st1" d="M16,3.3c-0.3-0.3-0.9-0.3-1.2,0l-2.4,2.4l-1.1-1.1c-0.3-0.3-0.9-0.3-1.2,0c-0.3,0.3-0.3,0.9,0,1.2l1.4,1.4
			c0.5,0.5,1.4,0.5,2,0L16,4.5C16.4,4.2,16.4,3.6,16,3.3z"/>
	</g>
</g>
<g id="모양_1296">
	<g>
		<path class="st0" d="M26.3,17.9c-0.3-0.1-0.7-0.1-1,0.1c-1.5,0.9-3.1,1.8-4.6,2.7H19c-0.4,0.6-1,1-1.8,1h-4.4V21h4.4
			c0.6,0,1-0.3,1.2-0.9c0.3-0.8-0.3-1.8-1.3-1.8H9.7l-3.8,2.2l2.8,4.8l1.2-0.7h11.1l5.7-4.4C27.6,19.4,27.3,18.1,26.3,17.9z
			 M4.9,20.3L4.8,20l-2,1.2l3.8,6.5l2-1.2l-0.2-0.3L4.9,20.3z"/>
	</g>
</g>
</svg>
