<?xml version="1.0" encoding="utf-8"?>
<!-- Generator: Adobe Illustrator 27.9.6, SVG Export Plug-In . SVG Version: 9.03 Build 54986)  -->
<svg version="1.1" id="레이어_1" xmlns="http://www.w3.org/2000/svg" xmlns:xlink="http://www.w3.org/1999/xlink" x="0px"
	 y="0px" width="30px" height="30px" viewBox="0 0 30 30" style="enable-background:new 0 0 30 30;" xml:space="preserve">
<style type="text/css">
	.st0{fill-rule:evenodd;clip-rule:evenodd;fill:#313131;}
	.st1{fill-rule:evenodd;clip-rule:evenodd;fill:#AF2D2D;}
</style>
<path class="st0" d="M26.7,20.8h-5.8c-0.3,0-0.6,0.3-0.6,0.6v5.3c0,0.6-0.5,1.2-1.2,1.2h-0.6c-0.6,0-1.2-0.5-1.2-1.2v-8.2h1.5
	c1.4,0,2.6-1.2,2.6-2.6v-0.1c0-1.4-1.2-2.6-2.6-2.6h-0.6c-0.1-0.2-0.1-0.5,0.1-0.8c0.2-0.2,0.5-0.4,0.8-0.4h3.4
	c0.3,0,0.6-0.3,0.6-0.6v-0.7c0-1.2,1-2.2,2.2-2.2h0.2c1.2,0,2.2,1,2.2,2.2v8.9C27.9,20.3,27.3,20.8,26.7,20.8z M25.5,6.8
	c-1.3,0-2.3-1-2.3-2.3c0-1.3,1-2.3,2.3-2.3c1.3,0,2.3,1,2.3,2.3C27.9,5.8,26.8,6.8,25.5,6.8z M10.9,10l-3.3,2.3
	c-0.2,0.1-0.3,0.3-0.3,0.5v3.4c0,0.1,0,0.2,0.1,0.2c0.2,1.2,1.3,2.1,2.5,2.1h0.9v7.9c0,0.8-0.6,1.4-1.4,1.4H9.4
	c-0.8,0-1.4-0.6-1.4-1.4v-6.2c0-0.3-0.3-0.6-0.6-0.6H3.1l0,0c-0.5,0-0.9-0.4-0.9-0.9v-8.7c0-0.5,0.4-0.9,0.9-0.9h1.2
	c0.4,0,0.7,0.3,0.7,0.7v0.2c0,0.2,0.1,0.4,0.3,0.5c0.2,0.1,0.4,0.1,0.6,0l4.2-2.4c0.3-0.2,0.7-0.1,1,0.2c0.2,0.2,0.3,0.6,0.3,0.9
	C11.3,9.6,11.2,9.9,10.9,10z M5.1,6.8c-1.3,0-2.3-1-2.3-2.3c0-1.3,1-2.3,2.3-2.3c1.3,0,2.3,1,2.3,2.3C7.4,5.8,6.4,6.8,5.1,6.8z"/>
<path class="st1" d="M20.3,15.8L20.3,15.8c0,0.9-0.6,1.5-1.4,1.5H10c-0.8,0-1.4-0.6-1.4-1.4v-0.1c0-0.8,0.6-1.4,1.4-1.4h8.8
	c0.3,0,0.6,0.1,0.8,0.2l0.1,0.1l0,0c0,0,0.1,0.1,0.1,0.1c0,0,0.1,0.1,0.1,0.1c0,0.1,0.1,0.1,0.1,0.2c0.1,0.2,0.1,0.3,0.2,0.5
	C20.3,15.7,20.3,15.8,20.3,15.8L20.3,15.8z"/>
</svg>
