<?xml version="1.0" encoding="utf-8"?>
<!-- Generator: Adobe Illustrator 27.9.4, SVG Export Plug-In . SVG Version: 9.03 Build 54784)  -->
<svg version="1.1" id="레이어_1" xmlns="http://www.w3.org/2000/svg" xmlns:xlink="http://www.w3.org/1999/xlink" x="0px"
	 y="0px" width="50px" height="50px" viewBox="0 0 50 50" style="enable-background:new 0 0 50 50;" xml:space="preserve">
<style type="text/css">
	.st0{display:none;fill-rule:evenodd;clip-rule:evenodd;fill:#BF8C0A;}
	.st1{display:none;fill-rule:evenodd;clip-rule:evenodd;fill:#4F2E0C;}
	.st2{display:none;fill-rule:evenodd;clip-rule:evenodd;fill:#262626;stroke:#262626;stroke-width:0.9388;}
	.st3{display:none;fill-rule:evenodd;clip-rule:evenodd;fill:#262626;}
	.st4{display:none;fill-rule:evenodd;clip-rule:evenodd;}
	.st5{fill-rule:evenodd;clip-rule:evenodd;}
</style>
<path class="st0" d="M25,49.2c-1.7,0-3.3-0.8-4.3-2.2C14.9,39.2,5.2,28.5,5.2,20.6C5.2,13.5,9,7,15.1,3.5c6.1-3.5,13.7-3.5,19.8,0
	C41,7,44.8,13.5,44.8,20.6c0,7.9-9.7,18.6-15.5,26.4C28.3,48.4,26.7,49.2,25,49.2L25,49.2z M25,4.2c-4.3,0-8.5,1.8-11.5,4.8
	s-4.7,7.2-4.7,11.5c0,5,5.4,11.5,14.8,24.2c0.3,0.4,0.9,0.7,1.4,0.7c0.6,0,1.1-0.3,1.4-0.7c9.4-12.7,14.8-19.3,14.8-24.2
	c0-4.3-1.7-8.5-4.7-11.5C33.5,6,29.3,4.3,25,4.2L25,4.2z M25,31.2c-2.9,0-5.6-1.1-7.6-3.2c-2-2-3.2-4.8-3.2-7.6
	c0-2.9,1.1-5.6,3.2-7.6c2-2,4.8-3.2,7.6-3.2c2.9,0,5.6,1.1,7.6,3.2c2,2,3.2,4.8,3.2,7.6c0,2.9-1.1,5.6-3.2,7.6
	C30.6,30.1,27.9,31.2,25,31.2L25,31.2z M25,13.2c-2.9,0-5.5,1.8-6.7,4.4c-1.1,2.7-0.5,5.8,1.6,7.8c2.1,2.1,5.2,2.7,7.9,1.6
	c2.7-1.1,4.4-3.7,4.4-6.6c0-1.9-0.8-3.7-2.1-5.1C28.7,14,26.9,13.2,25,13.2L25,13.2z"/>
<path class="st1" d="M25,39.7L3.5,10.3h43L25,39.7z"/>
<path class="st2" d="M38.6,22.2c0-9.1-7.3-16.4-16.4-16.4c-9.1,0-16.4,7.3-16.4,16.4c0,9.1,7.3,16.4,16.4,16.4c3.5,0,7-1.1,9.8-3.3
	l8.9,8.9l3.3-3.3L35.3,32C37.4,29.2,38.6,25.7,38.6,22.2z M22.2,33.9c-6.5,0-11.7-5.3-11.7-11.7s5.3-11.7,11.7-11.7
	c6.5,0,11.7,5.3,11.7,11.7S28.6,33.9,22.2,33.9z"/>
<path class="st3" d="M36.4,46.4H13.6c-4.2,0-7.7-3.4-7.7-7.7c0-7.4,6-13.4,13.4-13.4h11.3c7.4,0,13.4,6,13.4,13.4
	C44.1,43,40.7,46.4,36.4,46.4z M30.7,30.4H19.3c-4.6,0-8.3,3.7-8.3,8.3c0,1.4,1.1,2.5,2.5,2.5h22.9c1.4,0,2.5-1.1,2.5-2.5
	C39,34.1,35.3,30.4,30.7,30.4z M25,23.6c-5.5,0-10-4.5-10-10s4.5-10,10-10s10,4.5,10,10S30.5,23.6,25,23.6z M25,8.7
	c-2.7,0-4.8,2.2-4.8,4.8s2.2,4.8,4.8,4.8s4.8-2.2,4.8-4.8S27.7,8.7,25,8.7z"/>
<path class="st3" d="M47.6,19.6l-2.8,10.4c-0.9,3.3-3.8,5.5-7.2,5.5H23.8c-3.4,0-6.3-2.3-7.2-5.5l-1.1-4c-0.1-0.2-0.2-0.4-0.2-0.6
	l-3.8-14.2c-0.2-0.6-0.7-1.1-1.4-1.1H4.8c-1.5,0-2.6-1.2-2.6-2.6S3.4,5,4.8,5h5.3c3,0,5.7,2.1,6.5,5l0.7,2.6h24.9
	c1.7,0,3.3,0.8,4.4,2.2C47.7,16.2,48.1,17.9,47.6,19.6z M42.5,18c-0.1-0.1-0.2-0.1-0.2-0.1H18.9l2.9,10.8c0.2,0.9,1.1,1.6,2.1,1.6
	h13.8c1,0,1.8-0.7,2.1-1.6l2.8-10.4C42.5,18.2,42.5,18.1,42.5,18z M22.5,37.4c2.1,0,3.8,1.7,3.8,3.8S24.6,45,22.5,45
	c-2.1,0-3.8-1.7-3.8-3.8S20.4,37.4,22.5,37.4z M38.4,37.4c2.1,0,3.8,1.7,3.8,3.8S40.5,45,38.4,45c-2.1,0-3.8-1.7-3.8-3.8
	S36.3,37.4,38.4,37.4z"/>
<path class="st4" d="M37.8,44.6l-3,3L15.2,28l0,0l-3-3l3-3l0,0L34.8,2.4l3,3L18.2,25L37.8,44.6z"/>
<path class="st5" d="M38.9,24.9l-3,3l0,0L16.4,47.4l-3-3l19.5-19.5L13.4,5.4l3-3l19.5,19.5l0,0L38.9,24.9z"/>
</svg>
