<svg 
 xmlns="http://www.w3.org/2000/svg"
 xmlns:xlink="http://www.w3.org/1999/xlink"
 width="43px" height="47px">
<path fill-rule="evenodd"  fill="rgb(195, 195, 195)"
 d="M42.519,22.758 C41.879,23.399 40.841,23.399 40.200,22.758 L23.134,5.712 L23.134,45.355 C23.134,46.258 22.400,46.992 21.495,46.992 C20.589,46.992 19.855,46.258 19.855,45.355 L19.855,5.713 L2.789,22.758 C2.149,23.399 1.111,23.399 0.471,22.758 C-0.169,22.120 -0.169,21.082 0.471,20.443 L20.336,0.600 C20.976,-0.039 22.014,-0.039 22.654,0.600 L42.519,20.443 C42.839,20.763 42.999,21.181 42.999,21.601 C42.999,22.019 42.839,22.439 42.519,22.758 Z"/>
</svg>