<svg 
 xmlns="http://www.w3.org/2000/svg"
 xmlns:xlink="http://www.w3.org/1999/xlink"
 width="58px" height="44px">
<path fill-rule="evenodd"  fill="rgb(195, 195, 195)"
 d="M57.246,23.295 L37.415,43.175 C37.094,43.495 36.675,43.656 36.257,43.656 C35.838,43.656 35.419,43.495 35.099,43.175 C34.460,42.535 34.460,41.495 35.099,40.855 L52.137,23.776 L2.519,23.776 C1.616,23.776 0.883,23.042 0.883,22.136 C0.883,21.229 1.616,20.495 2.519,20.495 L52.137,20.495 L35.099,3.416 C34.460,2.775 34.460,1.737 35.099,1.096 C35.738,0.456 36.775,0.456 37.415,1.096 L57.246,20.976 C57.886,21.616 57.886,22.655 57.246,23.295 Z"/>
</svg>