<?xml version="1.0" encoding="utf-8"?>
<!-- Generator: Adobe Illustrator 27.9.6, SVG Export Plug-In . SVG Version: 9.03 Build 54986)  -->
<svg version="1.1" id="레이어_1" xmlns="http://www.w3.org/2000/svg" xmlns:xlink="http://www.w3.org/1999/xlink" x="0px"
	 y="0px" width="30px" height="30px" viewBox="0 0 30 30" style="enable-background:new 0 0 30 30;" xml:space="preserve">
<style type="text/css">
	.st0{fill:#313131;}
	.st1{fill:#AF2D2D;}
</style>
<g id="모양_1300">
	<g>
		<path class="st0" d="M8.8,13.9c1.3,0,2.4-1.1,2.4-2.4c0-1.3-1.1-2.4-2.4-2.4c-1.3,0-2.4,1.1-2.4,2.4C6.4,12.8,7.5,13.9,8.8,13.9z
			 M22,9.4c-0.1-0.1-0.3,0-0.4,0.1l-3.4,5.9c-0.1,0-0.2,0-0.3,0l-3.3,1l-2.3-0.9c-0.5-0.2-1.1-0.3-1.6-0.3H8.1
			c-0.7,0-1.4,0.2-1.9,0.7l-3.8,3.2c-0.5,0.4-0.6,1.1-0.2,1.7L4.3,24c0.2,0.2,0.4,0.4,0.7,0.5c0.3,0,0.6,0,0.8-0.2
			c0,0,0.1-0.1,0.1-0.1v1.3h5.7v-7.5l2.1,0.8c0.6,0.2,1.2,0.2,1.8,0l2.9-1c0.6-0.2,0.9-0.8,0.7-1.4c-0.1-0.3-0.3-0.5-0.5-0.7
			l3.4-5.8C22.2,9.6,22.2,9.5,22,9.4z M6,22.7l-1.6-2.4L6,19.1V22.7z"/>
	</g>
</g>
<g id="모양_1300_복사">
	<g>
		<path class="st1" d="M27.8,21.6L27.8,21.6l-1.1,0V5.2c0-0.3-0.3-0.6-0.6-0.6H2.4C2,4.6,1.8,4.8,1.8,5.2V17l1.8-1.1V6.4h21.3v15.2
			h-11v1.8h13.9C28.4,23.4,28.4,21.6,27.8,21.6z"/>
	</g>
</g>
<g id="사각형_1313">
	<g>
		<path class="st1" d="M22.7,9.1c-0.2-0.2-0.6-0.1-0.8,0.1l-5.5,7.1c-0.2,0.2-0.1,0.6,0.1,0.8s0.6,0.1,0.8-0.1l5.5-7.1
			C23,9.6,22.9,9.3,22.7,9.1z"/>
	</g>
</g>
</svg>
