<?xml version="1.0" encoding="utf-8"?>
<!-- Generator: Adobe Illustrator 27.9.6, SVG Export Plug-In . SVG Version: 9.03 Build 54986)  -->
<svg version="1.1" id="레이어_1" xmlns="http://www.w3.org/2000/svg" xmlns:xlink="http://www.w3.org/1999/xlink" x="0px"
	 y="0px" width="30px" height="30px" viewBox="0 0 30 30" style="enable-background:new 0 0 30 30;" xml:space="preserve">
<style type="text/css">
	.st0{fill:#313131;}
	.st1{fill:#AF2D2D;}
</style>
<g id="모양_1291">
	<g>
		<path class="st0" d="M13.9,11.3l-1-0.9L12,9.6l-2,1.9c-1.9,1.9-5.7,5.8-7.7,7.6c-0.5,0.5-0.7,1.1-0.7,1.7c0,1.1,0.8,1.8,1.8,1.7
			c0.6,0,1.2-0.3,1.7-0.9c1.7-2.1,5.3-6.2,7-8.2L13.9,11.3z M16.9,10.1c0.5,0.5,0.6,1.1,0.3,1.8c0.1,0.1,0.2,0.2,0.4,0.3
			c0.5,0.4,1,0.9,1.5,1.3c0.1,0.1,0.1,0.1,0.2,0.1c0,0,0.1,0,0.2-0.1l2.4-2.6l0.6-0.7c0.1-0.1,0.2-0.3,0-0.5
			c-0.2-0.2-0.5-0.4-0.7-0.7c-0.3-0.2-0.5-0.5-0.8-0.7c-0.1-0.1-0.2-0.1-0.3-0.1c-0.1,0-0.6,0-0.8,0l0,0C19.3,8.3,19,8,19,7.4l0-0.1
			c0-0.1,0-0.3,0-0.4c0-0.2-0.1-0.3-0.2-0.5C18,5.7,17,4.7,16.1,3.8c-0.4-0.4-0.9-0.7-1.4-0.9c-1.2-0.6-2.4-0.7-3.5-0.5
			C10.5,2.5,10,2.7,9.5,2.9C9.2,3.1,9.3,3.5,9.6,3.5c0.6,0,1.2,0.2,1.7,0.4c1.2,0.5,2,1.6,2,2.9c0,0.6-0.2,1.2-0.4,1.7
			c0.4,0.3,0.7,0.7,1.1,1c0.3,0.3,0.6,0.6,0.9,0.8c0.3-0.3,0.4-0.4,0.5-0.4c0.4-0.3,0.9-0.3,1.3-0.1C16.7,9.9,16.8,10,16.9,10.1z
			 M23.8,24.3c0-0.5-0.4-0.9-0.9-0.9c-1.9,0-3.9,0-5.8,0c-0.6,0-0.9,0.3-0.9,0.9c0,0.8,0,1.6,0,2.4c0,0.6,0.3,0.9,0.9,0.9
			c0.9,0,1.9,0,2.8,0c1,0,2,0,2.9,0c0.5,0,0.9-0.4,0.9-0.9C23.8,26,23.8,25.2,23.8,24.3z M13.8,23.4c-1,0-1.9,0-2.9,0
			c-1,0-1.9,0-2.9,0c-0.6,0-0.9,0.3-0.9,0.9c0,0.8,0,1.6,0,2.4c0,0.6,0.3,0.9,0.9,0.9c1.9,0,3.8,0,5.7,0c0.6,0,0.9-0.3,0.9-0.9
			c0-0.8,0-1.6,0-2.4C14.8,23.8,14.4,23.4,13.8,23.4z"/>
	</g>
</g>
<g id="모양_1291_복사">
	<g>
		<path class="st1" d="M18,17.3c-1,0-1.9,0-2.9,0c-0.9,0-1.9,0-2.8,0c-0.6,0-1,0.3-1,1c0,0.8,0,1.6,0,2.3c0,0.7,0.3,1,1,1
			c0.7,0,1.4,0,2.1,0c1.2,0,2.3,0,3.5,0c0.6,0,0.9-0.3,0.9-0.9c0-0.8,0-1.6,0-2.5C18.9,17.6,18.6,17.3,18,17.3z M27.5,17.3
			c-1,0-1.9,0-2.9,0c-1,0-1.9,0-2.9,0c-0.6,0-0.9,0.3-0.9,0.9c0,0.8,0,1.7,0,2.5c0,0.5,0.3,0.9,0.9,0.9c1.9,0,3.9,0,5.8,0
			c0.5,0,0.9-0.3,0.9-0.9c0-0.8,0-1.7,0-2.5C28.4,17.6,28,17.3,27.5,17.3z"/>
	</g>
</g>
</svg>
