<?xml version="1.0" encoding="utf-8"?>
<!-- Generator: Adobe Illustrator 27.9.6, SVG Export Plug-In . SVG Version: 9.03 Build 54986)  -->
<svg version="1.1" id="레이어_1" xmlns="http://www.w3.org/2000/svg" xmlns:xlink="http://www.w3.org/1999/xlink" x="0px"
	 y="0px" width="30px" height="30px" viewBox="0 0 30 30" style="enable-background:new 0 0 30 30;" xml:space="preserve">
<style type="text/css">
	.st0{fill-rule:evenodd;clip-rule:evenodd;fill:#313131;}
	.st1{fill-rule:evenodd;clip-rule:evenodd;fill:#AF2D2D;}
</style>
<path class="st0" d="M10,6.8H7.2l-0.7,3.3c0.1,0.2,0.3,0.4,0.6,0.5C7.4,10.9,7.7,11,8,11c0.4,0,0.8-0.1,1.1-0.3
	c0.2-0.1,0.6-0.3,0.7-0.5L10,6.8L10,6.8L10,6.8z M13.9,10.1V6.8h-3.5v3.3c0.1,0.2,0.4,0.4,0.6,0.5c0.4,0.2,0.8,0.3,1.2,0.3
	c0.3,0,0.7-0.1,1-0.3C13.5,10.5,13.8,10.3,13.9,10.1L13.9,10.1L13.9,10.1z M10.3,16.9H7.4v-5.6c0.2,0.1,0.4,0.1,0.6,0.1
	c0.5,0,1-0.1,1.5-0.4c0.2-0.1,0.4-0.3,0.6-0.4c0.2,0.2,0.4,0.3,0.6,0.4c0.5,0.2,1,0.4,1.5,0.4c0.5,0,1-0.1,1.4-0.4
	c0.2-0.1,0.4-0.3,0.6-0.5c0.2,0.2,0.4,0.3,0.6,0.4c0.5,0.2,1,0.4,1.5,0.4c0.2,0,0.4,0,0.6-0.1l0,5.6H14v-2.4c0-0.8-0.5-1.2-1.1-1.5
	c-0.2-0.1-0.5-0.1-0.7-0.1c-0.2,0-0.5,0-0.7,0.1c-0.6,0.2-1.1,0.6-1.1,1.5V16.9L10.3,16.9L10.3,16.9z M13.6,16.9v-2.4
	c0-0.5-0.3-0.9-0.8-1.1c-0.2-0.1-0.4-0.1-0.6-0.1c-0.2,0-0.4,0-0.6,0.1c-0.4,0.1-0.8,0.6-0.8,1.1v2.4H13.6z M14.4,6.8l0.1,3.3
	c0.1,0.2,0.5,0.4,0.7,0.5c0.3,0.2,0.7,0.3,1.1,0.3c0.3,0,0.6-0.1,0.9-0.3c0.2-0.1,0.4-0.3,0.6-0.5l-0.7-3.3H14.4z M21.1,22.8
	L21.1,22.8L21.1,22.8l-0.3,0.3l3.9,3.9c0.4,0.4,0.8,0.5,1.3,0.5c0.5,0,0.9-0.2,1.3-0.5c0.4-0.4,0.5-0.8,0.5-1.3
	c0-0.5-0.2-0.9-0.5-1.3l-3.9-3.9L21.1,22.8L21.1,22.8L21.1,22.8z M20.8,22l1.4-1.4l-1.8-1.8c-0.2,0.2-0.4,0.4-0.5,0.6
	c-0.3,0.3-0.6,0.6-0.9,0.8L20.8,22L20.8,22z"/>
<path class="st1" d="M22.2,12.1L22.2,12.1c-0.1,2.8-1.2,5.3-3.1,7c-1.8,1.8-4.4,2.8-7.1,2.8h0c-2.8-0.1-5.2-1.2-7-3.1
	c-1.8-1.8-2.8-4.4-2.8-7.1v0c0.1-2.8,1.2-5.2,3.1-7c1.9-1.8,4.4-2.8,7.1-2.8h0c2.8,0.1,5.2,1.2,7,3.1C21.2,6.8,22.2,9.3,22.2,12.1
	L22.2,12.1z M4.3,12c0-2.2,0.8-4.2,2.2-5.6C7.9,4.9,9.8,4,12,4h0c2.2,0,4.2,0.8,5.6,2.2c1.5,1.4,2.4,3.3,2.4,5.5v0
	c0,2.2-0.8,4.2-2.2,5.6c-1.4,1.5-3.4,2.4-5.5,2.4h0c-2.2,0-4.2-0.8-5.6-2.2C5.2,16.1,4.3,14.2,4.3,12L4.3,12L4.3,12L4.3,12z"/>
</svg>
