<?xml version="1.0" encoding="utf-8"?>
<!-- Generator: Adobe Illustrator 27.9.6, SVG Export Plug-In . SVG Version: 9.03 Build 54986)  -->
<svg version="1.1" id="레이어_1" xmlns="http://www.w3.org/2000/svg" xmlns:xlink="http://www.w3.org/1999/xlink" x="0px"
	 y="0px" width="30px" height="30px" viewBox="0 0 30 30" style="enable-background:new 0 0 30 30;" xml:space="preserve">
<style type="text/css">
	.st0{fill:#313131;}
	.st1{fill:#AF2D2D;}
</style>
<g id="모양_1299">
	<g>
		<path class="st0" d="M27.5,13.9c-1.7-0.4-2.6-0.7-3.2-1.3c-0.3-0.3-0.6-0.7-0.8-1.3c-0.2-0.6-0.3-1.3-0.5-1.9l0,0
			c-0.4-1.1-1.1-1.1-2.1-1.1c-2.2,0-3.8,0.7-4.9,1.8c-1.1,1.2-1.6,2.9-1.7,4.8c0,0.5,0.4,1,0.9,1c0.5,0,1-0.4,1-0.9
			c0.1-1.7,0.5-2.9,1.2-3.6c0.4-0.5,1-0.8,1.8-1.1l-0.1,0.3l0,0l-0.9,4.7c0,0,0,0,0,0c1.5,3.6,3,7.1,4.4,10.7c0.3,0.7,1.1,1,1.8,0.7
			c0.7-0.3,1-1.1,0.7-1.8l-3.6-8.6l0.5-1.9l0.3-1.4c1,1.8,3.2,2.2,4.7,2.6c0.5,0.1,1-0.2,1.1-0.7C28.3,14.5,28,14,27.5,13.9z
			 M9.4,7.6c1.3,0,2.4-1.1,2.4-2.4c0-1.3-1.1-2.4-2.4-2.4C8.1,2.8,7,3.8,7,5.2C7,6.5,8.1,7.6,9.4,7.6z M22.3,7.6
			c1.3,0,2.4-1.1,2.4-2.4c0-1.3-1.1-2.4-2.4-2.4c-1.3,0-2.4,1.1-2.4,2.4C19.9,6.5,21,7.6,22.3,7.6z M9.4,13.1c1,1.8,3.2,2.2,4.7,2.6
			c-0.1-0.2-0.2-0.5-0.2-0.8c0-0.4,0.1-0.8,0.1-1.2c-1.4-0.4-2.2-0.7-2.7-1.2c-0.3-0.3-0.6-0.7-0.8-1.3c-0.2-0.6-0.3-1.3-0.5-1.9
			l0,0C9.7,8.3,8.9,8.3,8,8.3c-2,0-4.3,1.4-5.3,3.1c-0.7,1.2-0.8,2.5-0.8,4.4c0,0.5,0.4,1,0.9,1c0.5,0,0.9-0.4,0.9-1
			c0-1.8,0.1-2.7,0.5-3.4c0.3-0.5,0.9-1,1.9-1.6c-0.3,1.6-0.6,3.1-1,4.7c1.5,3.6,3,7.1,4.4,10.7c0.3,0.7,1.1,1,1.8,0.7
			c0.7-0.3,1-1.1,0.7-1.8l-3.6-8.6l0.5-1.9L9.4,13.1z"/>
	</g>
</g>
<g id="모양_1299_복사">
	<g>
		<path class="st1" d="M17.9,16.8L17,21.4l-2.1,3.5c-0.4,0.6-0.2,1.5,0.5,1.9c0.6,0.4,1.5,0.2,1.8-0.5l2.3-3.8
			c0.1-0.2,0.2-0.4,0.2-0.7l0-0.7C19.1,19.7,18.5,18.3,17.9,16.8z M4.1,21.4L2,24.9c-0.4,0.6-0.2,1.5,0.5,1.9
			c0.6,0.4,1.5,0.2,1.8-0.5l2.3-3.8c0.1-0.2,0.2-0.4,0.2-0.7l0-0.7c-0.6-1.4-1.2-2.8-1.8-4.3L4.1,21.4z"/>
	</g>
</g>
</svg>
