<?xml version="1.0" encoding="utf-8"?>
<!-- Generator: Adobe Illustrator 27.9.6, SVG Export Plug-In . SVG Version: 9.03 Build 54986)  -->
<svg version="1.1" id="레이어_1" xmlns="http://www.w3.org/2000/svg" xmlns:xlink="http://www.w3.org/1999/xlink" x="0px"
	 y="0px" width="30px" height="30px" viewBox="0 0 30 30" style="enable-background:new 0 0 30 30;" xml:space="preserve">
<style type="text/css">
	.st0{fill:#313131;}
	.st1{fill:#AF2D2D;}
	.st2{fill:#FFFFFF;}
</style>
<g id="모양_1297">
	<g>
		<path class="st0" d="M15,1.6c-7.4,0-13.3,6-13.3,13.3s6,13.3,13.3,13.3c7.4,0,13.3-6,13.3-13.3C28.3,7.5,22.4,1.6,15,1.6z M15,4.2
			c5.6,0,10.2,4.3,10.6,9.8c-5.2-0.2-7.5-2.3-10.6-2.3c-3,0-5.5,2.1-10.6,2.3C4.8,8.5,9.4,4.2,15,4.2z M12.8,25.3
			c-4-0.8-7.1-3.9-8.1-7.8c1.7-0.9,6.3-2.9,8.4,0.2C14.1,19.2,13.1,23.9,12.8,25.3z M15,17.1c-1.3,0-2.3-1-2.3-2.3s1-2.3,2.3-2.3
			c1.3,0,2.3,1,2.3,2.3S16.3,17.1,15,17.1z M17.2,25.3c-0.3-1.4-1.3-6.2-0.3-7.6c2.3-3.1,6.7-1.1,8.4-0.2
			C24.4,21.4,21.2,24.4,17.2,25.3z"/>
	</g>
</g>
<g id="타원_1317">
	<g>
		<path class="st1" d="M14.9,19c-2.2,0-4-1.8-4-4s1.8-4,4-4s4,1.8,4,4S17.1,19,14.9,19z"/>
	</g>
	<g>
		<path class="st2" d="M14.9,12.1c1.6,0,2.9,1.3,2.9,2.9c0,1.6-1.3,2.9-2.9,2.9c-1.6,0-2.9-1.3-2.9-2.9
			C11.9,13.4,13.2,12.1,14.9,12.1 M14.9,9.9c-2.8,0-5.1,2.3-5.1,5.1c0,2.8,2.3,5.1,5.1,5.1c2.8,0,5.1-2.3,5.1-5.1
			C20,12.2,17.7,9.9,14.9,9.9L14.9,9.9z"/>
	</g>
</g>
</svg>
