<?xml version="1.0" encoding="utf-8"?>
<!-- Generator: Adobe Illustrator 27.9.6, SVG Export Plug-In . SVG Version: 9.03 Build 54986)  -->
<svg version="1.1" id="레이어_1" xmlns="http://www.w3.org/2000/svg" xmlns:xlink="http://www.w3.org/1999/xlink" x="0px"
	 y="0px" width="30px" height="30px" viewBox="0 0 30 30" style="enable-background:new 0 0 30 30;" xml:space="preserve">
<style type="text/css">
	.st0{fill:#313131;}
	.st1{fill:#AF2D2D;}
</style>
<g id="모양_1295">
	<g>
		<path class="st0" d="M16.5,7.1c-1.1-0.5-2.4-0.3-3.2,0.6l-3.1,3.1c-0.2,0.2-0.4,0.6-0.4,0.9c0,0.3,0.1,0.6,0.4,0.9
			c0.2,0.2,0.5,0.4,0.9,0.4h0c0.3,0,0.6-0.1,0.9-0.4l2.3-2.3c0.6-0.6,1.5-0.6,2.1,0l6.2,6.3c0,0,0,0.1,0.1,0.1
			c0.5-0.3,1.1-0.6,1.6-1l-0.6-6.9C19.5,8.4,17.6,7.6,16.5,7.1z M5.2,7.3C5.2,7.3,5.2,7.3,5.2,7.3l-3.5,0c-0.3,0-0.5,0.2-0.5,0.5
			v8.9c0,0.3,0.2,0.5,0.5,0.5h2.6c0.3,0,0.5-0.2,0.5-0.5l0.8-8.9C5.7,7.6,5.5,7.3,5.2,7.3z M28.3,7.3h-3.4c-0.3,0-0.5,0.2-0.5,0.5
			c0,0,0,0,0,0l0.8,8.9c0,0.3,0.2,0.5,0.5,0.5h2.6c0.3,0,0.5-0.2,0.5-0.5V7.8C28.8,7.5,28.6,7.3,28.3,7.3z"/>
	</g>
</g>
<g id="모양_1295_복사">
	<g>
		<path class="st1" d="M21.9,17.5c-0.1-0.1-0.1-0.2-0.2-0.3L15.6,11c-0.2-0.2-0.5-0.2-0.7,0l0,0l-2.3,2.3c-0.4,0.4-1,0.7-1.6,0.7h0
			c-1.2,0-2.2-1-2.2-2.2c0-0.6,0.2-1.2,0.6-1.6l1.8-1.9c-1.6-0.1-3.1-0.1-4.7,0l-0.7,8.2c1.1,0.9,2.1,1.9,2.9,3
			c0.8,1,1.9,2.2,3.3,3.6c0.4,0.4,1,0.4,1.4,0c0.4-0.4,0.4-1,0-1.4l0,0l-2.1-2.1c-0.2-0.2-0.2-0.5,0-0.7c0.2-0.2,0.5-0.2,0.7,0
			c0,0,0,0,0,0l3.1,3.2c0.4,0.4,1,0.4,1.4,0c0.4-0.4,0.4-1,0-1.4c0,0,0,0,0,0l-2.8-2.8c-0.2-0.2-0.2-0.5,0-0.7
			c0.2-0.2,0.5-0.2,0.7,0l3.5,3.5c0.4,0.4,1,0.4,1.4,0c0.4-0.4,0.4-1,0-1.4l0,0v0l-3.1-3.2c-0.2-0.2-0.2-0.5,0-0.7
			c0.2-0.2,0.5-0.2,0.7,0l3.5,3.5c0.2,0.2,0.5,0.3,0.8,0.3c0.3,0,0.6-0.2,0.7-0.5C22.1,18.2,22.1,17.8,21.9,17.5z"/>
	</g>
</g>
</svg>
